
<svg width="512" height="512" viewBox="0 0 512 512" fill="none" xmlns="http://www.w3.org/2000/svg">
<path d="M391.691 351.193L377.346 143.193C375.115 110.847 360.692 80.5521 336.99 58.4283C313.287 36.3044 282.072 23.9999 249.649 24H232.6C200.176 23.9992 168.96 36.3033 145.258 58.4272C121.555 80.5512 107.131 110.846 104.9 143.193L90.5551 351.193C89.3474 368.703 91.7538 386.274 97.6247 402.815C103.496 419.355 112.705 434.512 124.682 447.342C136.658 460.173 151.146 470.403 167.244 477.397C183.341 484.392 200.705 488.001 218.257 488H263.994C281.545 488 298.909 484.391 315.006 477.396C331.103 470.401 345.59 460.171 357.566 447.341C369.542 434.51 378.751 419.354 384.622 402.814C390.492 386.273 392.899 368.703 391.691 351.193V351.193ZM241.125 264C226.885 264 212.964 259.777 201.124 251.866C189.284 243.954 180.055 232.709 174.606 219.553C169.156 206.397 167.73 191.92 170.509 177.953C173.287 163.987 180.144 151.158 190.213 141.088C200.283 131.019 213.112 124.162 227.079 121.383C241.045 118.605 255.522 120.031 268.678 125.481C281.835 130.93 293.079 140.159 300.991 151.999C308.902 163.839 313.125 177.76 313.125 192C313.125 211.096 305.539 229.409 292.037 242.912C278.534 256.414 260.221 264 241.125 264Z" fill="#FFC9C9"/>
<path d="M239.875 88C248.712 88 255.875 80.8366 255.875 72C255.875 63.1634 248.712 56 239.875 56C231.038 56 223.875 63.1634 223.875 72C223.875 80.8366 231.038 88 239.875 88Z" fill="#ED8989"/>
<path d="M416 172.828V136C416 129.635 413.471 123.53 408.971 119.029C404.47 114.529 398.365 112 392 112C385.635 112 379.53 114.529 375.029 119.029C370.529 123.53 368 129.635 368 136V172.828C353.657 179.054 344 190.677 344 204C344 223.882 365.49 240 392 240C418.51 240 440 223.882 440 204C440 190.677 430.343 179.054 416 172.828Z" fill="#FBE9D8"/>
<path d="M376 264H408C424.974 264 441.252 270.743 453.255 282.745C465.257 294.748 472 311.026 472 328V456C472 464.487 468.629 472.626 462.627 478.627C456.626 484.629 448.487 488 440 488H344C335.513 488 327.374 484.629 321.373 478.627C315.371 472.626 312 464.487 312 456V328C312 311.026 318.743 294.748 330.745 282.745C342.748 270.743 359.026 264 376 264V264Z" fill="#E9EEF2"/>
<path d="M211.172 424H248C254.365 424 260.47 421.471 264.971 416.971C269.471 412.47 272 406.365 272 400C272 393.635 269.471 387.53 264.971 383.029C260.47 378.529 254.365 376 248 376H211.172C204.946 361.657 193.323 352 180 352C160.118 352 144 373.49 144 400C144 426.51 160.118 448 180 448C193.323 448 204.946 438.343 211.172 424Z" fill="#FBE9D8"/>
<path d="M104 336C91.342 336 78.9683 339.754 68.4435 346.786C57.9188 353.818 49.7157 363.814 44.8717 375.508C40.0277 387.203 38.7603 400.071 41.2298 412.486C43.6992 424.901 49.7946 436.304 58.7452 445.255C67.6958 454.205 79.0995 460.301 91.5142 462.77C103.929 465.24 116.797 463.972 128.492 459.128C140.186 454.284 150.182 446.081 157.214 435.556C164.246 425.032 168 412.658 168 400C168 383.026 161.257 366.748 149.255 354.745C137.253 342.743 120.974 336 104 336V336ZM104 432C97.671 432 91.4842 430.123 86.2218 426.607C80.9594 423.091 76.8579 418.093 74.4359 412.246C72.0139 406.399 71.3802 399.965 72.6149 393.757C73.8496 387.55 76.8973 381.848 81.3726 377.373C85.8479 372.897 91.5497 369.85 97.7571 368.615C103.965 367.38 110.399 368.014 116.246 370.436C122.093 372.858 127.091 376.959 130.607 382.222C134.123 387.484 136 393.671 136 400C136 408.487 132.629 416.626 126.627 422.627C120.626 428.629 112.487 432 104 432Z" fill="#266FAB"/>
<path d="M168 328C168 319.163 160.837 312 152 312C143.163 312 136 319.163 136 328V472C136 480.837 143.163 488 152 488C160.837 488 168 480.837 168 472V328Z" fill="#3397E8"/>
<path d="M432 216H352C338.745 216 328 226.745 328 240C328 253.255 338.745 264 352 264H432C445.255 264 456 253.255 456 240C456 226.745 445.255 216 432 216Z" fill="#3397E8"/>
<path d="M239.875 48C235.128 48 230.488 49.4076 226.541 52.0447C222.595 54.6819 219.518 58.4302 217.702 62.8156C215.885 67.201 215.41 72.0266 216.336 76.6822C217.262 81.3377 219.548 85.6141 222.904 88.9706C226.261 92.327 230.537 94.6128 235.193 95.5388C239.848 96.4649 244.674 95.9896 249.059 94.1731C253.445 92.3566 257.193 89.2805 259.83 85.3337C262.467 81.3869 263.875 76.7468 263.875 72C263.868 65.6371 261.337 59.5369 256.837 55.0376C252.338 50.5384 246.238 48.0074 239.875 48V48ZM239.875 80C238.293 80 236.746 79.5308 235.43 78.6518C234.115 77.7727 233.089 76.5233 232.484 75.0615C231.878 73.5997 231.72 71.9911 232.029 70.4393C232.337 68.8874 233.099 67.462 234.218 66.3431C235.337 65.2243 236.762 64.4624 238.314 64.1537C239.866 63.845 241.475 64.0035 242.936 64.609C244.398 65.2145 245.648 66.2398 246.527 67.5554C247.406 68.871 247.875 70.4177 247.875 72C247.873 74.121 247.029 76.1544 245.529 77.6542C244.029 79.154 241.996 79.9976 239.875 80V80Z" fill="black"/>
<path d="M440 312H416C413.878 312 411.843 312.843 410.343 314.343C408.843 315.843 408 317.878 408 320C408 322.122 408.843 324.157 410.343 325.657C411.843 327.157 413.878 328 416 328H440C442.122 328 444.157 327.157 445.657 325.657C447.157 324.157 448 322.122 448 320C448 317.878 447.157 315.843 445.657 314.343C444.157 312.843 442.122 312 440 312Z" fill="black"/>
<path d="M440 344H416C413.878 344 411.843 344.843 410.343 346.343C408.843 347.843 408 349.878 408 352C408 354.122 408.843 356.157 410.343 357.657C411.843 359.157 413.878 360 416 360H440C442.122 360 444.157 359.157 445.657 357.657C447.157 356.157 448 354.122 448 352C448 349.878 447.157 347.843 445.657 346.343C444.157 344.843 442.122 344 440 344Z" fill="black"/>
<path d="M440 376H416C413.878 376 411.843 376.843 410.343 378.343C408.843 379.843 408 381.878 408 384C408 386.122 408.843 388.157 410.343 389.657C411.843 391.157 413.878 392 416 392H440C442.122 392 444.157 391.157 445.657 389.657C447.157 388.157 448 386.122 448 384C448 381.878 447.157 379.843 445.657 378.343C444.157 376.843 442.122 376 440 376Z" fill="black"/>
<path d="M440 408H416C413.878 408 411.843 408.843 410.343 410.343C408.843 411.843 408 413.878 408 416C408 418.122 408.843 420.157 410.343 421.657C411.843 423.157 413.878 424 416 424H440C442.122 424 444.157 423.157 445.657 421.657C447.157 420.157 448 418.122 448 416C448 413.878 447.157 411.843 445.657 410.343C444.157 408.843 442.122 408 440 408Z" fill="black"/>
<path d="M440 440H416C413.878 440 411.843 440.843 410.343 442.343C408.843 443.843 408 445.878 408 448C408 450.122 408.843 452.157 410.343 453.657C411.843 455.157 413.878 456 416 456H440C442.122 456 444.157 455.157 445.657 453.657C447.157 452.157 448 450.122 448 448C448 445.878 447.157 443.843 445.657 442.343C444.157 440.843 442.122 440 440 440Z" fill="black"/>
<path d="M104 432C121.673 432 136 417.673 136 400C136 382.327 121.673 368 104 368C86.3269 368 72 382.327 72 400C72 417.673 86.3269 432 104 432Z" fill="#FFC9C9"/>
<path d="M392 104C386.768 103.994 381.616 105.28 377 107.742C367.782 80.9658 350.437 57.7344 327.383 41.2884C304.33 24.8423 276.718 16.0018 248.4 16H231.352C196.902 15.9997 163.736 29.0732 138.552 52.5799C113.368 76.0866 98.0432 108.275 95.6729 142.643L82.667 331.227C73.5228 334.064 65.0362 338.696 57.7036 344.851C50.371 351.007 44.3396 358.564 39.9624 367.078C35.5851 375.593 32.9498 384.895 32.2107 394.441C31.4716 403.986 32.6435 413.583 35.6579 422.671C38.6722 431.758 43.4685 440.152 49.7661 447.364C56.0637 454.575 63.7361 460.458 72.3346 464.668C80.933 468.879 90.2848 471.333 99.8429 471.885C109.401 472.438 118.973 471.08 128 467.889V472C127.997 476.892 129.489 481.668 132.278 485.688C135.067 489.707 139.018 492.778 143.601 494.488C148.185 496.198 153.182 496.465 157.921 495.254C162.661 494.043 166.917 491.411 170.119 487.712C185.135 493.225 201.01 496.031 217.006 496H262.743C281.219 496.054 299.508 492.302 316.471 484.978C323.887 492.057 333.747 496.005 344 496H440C450.605 495.988 460.772 491.77 468.271 484.271C475.77 476.772 479.988 466.605 480 456V328C479.995 316.087 477.033 304.362 471.38 293.876C465.727 283.39 457.561 274.471 447.612 267.918C452.622 265.12 456.787 261.027 459.67 256.066C462.553 251.105 464.048 245.459 463.999 239.722C463.95 233.984 462.358 228.365 459.39 223.454C456.422 218.544 452.187 214.522 447.13 211.811C447.709 209.248 448.001 206.628 448 204C448 189.464 438.931 175.98 424 167.839V136C423.99 127.516 420.616 119.382 414.617 113.383C408.618 107.384 400.484 104.01 392 104V104ZM128 368.022C122.059 363.558 114.991 360.837 107.59 360.164C100.189 359.492 92.747 360.894 86.0985 364.215C79.45 367.535 73.8579 372.642 69.9494 378.963C66.041 385.284 63.9706 392.568 63.9706 400C63.9706 407.432 66.041 414.716 69.9494 421.037C73.8579 427.358 79.45 432.465 86.0985 435.785C92.747 439.106 100.189 440.508 107.59 439.836C114.991 439.163 122.059 436.442 128 431.978V450.6C119.464 454.647 110.044 456.469 100.614 455.897C91.1852 455.325 82.0541 452.376 74.0707 447.326C66.0873 442.276 59.5111 435.289 54.9541 427.014C50.3971 418.74 48.0074 409.447 48.0074 400C48.0074 390.553 50.3971 381.26 54.9541 372.986C59.5111 364.711 66.0873 357.724 74.0707 352.674C82.0541 347.624 91.1852 344.675 100.614 344.103C110.044 343.531 119.464 345.353 128 349.4V368.022ZM128 400C128 404.747 126.592 409.387 123.955 413.334C121.318 417.28 117.57 420.357 113.184 422.173C108.799 423.99 103.973 424.465 99.3178 423.539C94.6622 422.613 90.3858 420.327 87.0294 416.971C83.6729 413.614 81.3871 409.338 80.4611 404.682C79.5351 400.027 80.0103 395.201 81.8268 390.816C83.6433 386.43 86.7195 382.682 90.6663 380.045C94.613 377.408 99.2532 376 104 376C110.363 376.007 116.463 378.538 120.962 383.038C125.462 387.537 127.993 393.637 128 400V400ZM160 472C160 474.122 159.157 476.157 157.657 477.657C156.157 479.157 154.122 480 152 480C149.878 480 147.843 479.157 146.343 477.657C144.843 476.157 144 474.122 144 472V328C144 325.878 144.843 323.843 146.343 322.343C147.843 320.843 149.878 320 152 320C154.122 320 156.157 320.843 157.657 322.343C159.157 323.843 160 325.878 160 328V472ZM307.14 471.533C293.018 477.17 277.945 480.044 262.74 480H217.006C203.015 480.027 189.128 477.595 175.979 472.814C175.988 472.543 176 472.273 176 472V455.774C177.328 455.925 178.663 456 180 456C194.537 456 208.02 446.931 216.161 432H248C256.487 432 264.626 428.629 270.627 422.627C276.629 416.626 280 408.487 280 400C280 391.513 276.629 383.374 270.627 377.373C264.626 371.371 256.487 368 248 368H216.161C208.02 353.069 194.537 344 180 344C178.663 344 177.328 344.075 176 344.226V328C176 321.635 173.471 315.53 168.971 311.029C164.47 306.529 158.365 304 152 304C145.635 304 139.53 306.529 135.029 311.029C130.529 315.53 128 321.635 128 328V332.118C120.291 329.396 112.175 328.003 104 328C102.289 328 100.6 328.082 98.9149 328.2L111.636 143.744C113.309 119.567 122.259 96.4625 137.308 77.4673C152.358 58.472 172.804 44.4752 195.957 37.317C191.173 43.3561 187.688 50.319 185.723 57.7686C183.757 65.2183 183.353 72.9938 184.535 80.6071C185.717 88.2205 188.46 95.5072 192.593 102.01C196.725 108.513 202.157 114.091 208.547 118.395C190.308 126.162 175.604 140.424 167.284 158.417C158.964 176.41 157.621 196.852 163.517 215.778C169.412 234.705 182.126 250.768 199.192 260.853C216.259 270.938 236.462 274.327 255.885 270.362C275.308 266.397 292.566 255.361 304.315 239.394C316.063 223.427 321.464 203.666 319.47 183.943C317.476 164.221 308.229 145.941 293.523 132.648C278.817 119.355 259.698 111.997 239.875 112C229.266 112 219.092 107.786 211.591 100.284C204.089 92.7828 199.875 82.6087 199.875 72C199.875 61.3913 204.089 51.2172 211.591 43.7157C219.092 36.2143 229.266 32 239.875 32H248.4C275.473 31.9029 301.766 41.0562 322.926 57.944C342.921 73.8387 357.35 95.674 364.132 120.3C361.419 125.088 359.996 130.497 360 136V167.839C345.069 175.98 336 189.464 336 204C336.002 206.627 336.296 209.246 336.877 211.808C331.819 214.518 327.583 218.539 324.614 223.45C321.645 228.361 320.052 233.98 320.002 239.718C319.952 245.456 321.447 251.102 324.33 256.064C327.213 261.026 331.378 265.12 336.388 267.918C326.439 274.471 318.272 283.39 312.62 293.876C306.967 304.362 304.005 316.087 304 328V456C303.994 461.336 305.062 466.618 307.14 471.533V471.533ZM176 439.577V360.423C177.315 360.144 178.656 360.002 180 360C189.564 360 198.7 367.352 203.833 379.186C204.454 380.616 205.479 381.834 206.783 382.689C208.087 383.545 209.613 384 211.172 384H248C252.243 384 256.313 385.686 259.314 388.686C262.314 391.687 264 395.757 264 400C264 404.243 262.314 408.313 259.314 411.314C256.313 414.314 252.243 416 248 416H211.172C209.613 416 208.087 416.455 206.783 417.311C205.479 418.166 204.454 419.384 203.833 420.814C198.7 432.648 189.564 440 180 440C178.656 439.998 177.315 439.856 176 439.577V439.577ZM239.875 128C252.533 128 264.907 131.754 275.431 138.786C285.956 145.818 294.159 155.814 299.003 167.508C303.847 179.203 305.115 192.071 302.645 204.486C300.176 216.901 294.08 228.304 285.13 237.255C276.179 246.205 264.776 252.301 252.361 254.77C239.946 257.24 227.078 255.972 215.383 251.128C203.689 246.284 193.693 238.081 186.661 227.556C179.628 217.032 175.875 204.658 175.875 192C175.894 175.032 182.643 158.764 194.641 146.766C206.639 134.768 222.907 128.019 239.875 128ZM464 328V456C463.993 462.363 461.462 468.463 456.962 472.962C452.463 477.462 446.363 479.993 440 480H344C337.637 479.993 331.537 477.462 327.038 472.962C322.538 468.463 320.007 462.363 320 456V328C320.017 313.153 325.922 298.919 336.42 288.42C346.919 277.922 361.153 272.017 376 272H408C422.847 272.017 437.081 277.922 447.579 288.42C458.078 298.919 463.983 313.153 464 328ZM448 240C447.995 244.242 446.308 248.309 443.308 251.308C440.309 254.308 436.242 255.995 432 256H352C347.756 256 343.687 254.314 340.686 251.314C337.686 248.313 336 244.243 336 240C336 235.757 337.686 231.687 340.686 228.686C343.687 225.686 347.756 224 352 224H432C436.242 224.005 440.309 225.692 443.308 228.692C446.308 231.691 447.995 235.758 448 240V240ZM432 204C431.998 205.344 431.856 206.685 431.577 208H352.425C352.145 206.685 352.003 205.344 352 204C352 194.436 359.352 185.3 371.186 180.167C372.616 179.546 373.834 178.521 374.689 177.217C375.545 175.913 376 174.387 376 172.828V136C376 131.757 377.686 127.687 380.686 124.686C383.687 121.686 387.756 120 392 120C396.243 120 400.313 121.686 403.314 124.686C406.314 127.687 408 131.757 408 136V172.828C408 174.387 408.455 175.913 409.311 177.217C410.166 178.521 411.384 179.546 412.814 180.167C424.648 185.3 432 194.436 432 204Z" fill="black"/>
</svg>
