<svg width="512" height="512" viewBox="0 0 512 512" fill="none" xmlns="http://www.w3.org/2000/svg">
<path d="M304 40H400V88H304V40Z" fill="#A9BFD1"/>
<path d="M352 40H400V88H352V40Z" fill="#8DA3B2"/>
<path d="M328 40H344V80H328V40Z" fill="#5D717C"/>
<path d="M360 40H376V80H360V40Z" fill="#5D717C"/>
<path d="M423.451 400H280.551C277.327 400 274.135 399.365 271.156 398.132C268.177 396.898 265.471 395.09 263.191 392.81C260.911 390.531 259.103 387.824 257.869 384.846C256.635 381.867 256 378.675 256 375.451V128C256 115.27 261.057 103.061 270.059 94.0589C279.061 85.0571 291.27 80 304 80H400C412.73 80 424.939 85.0571 433.941 94.0589C442.943 103.061 448 115.27 448 128V375.451C448 381.962 445.414 388.206 440.81 392.81C436.206 397.414 429.962 400 423.451 400V400Z" fill="#88D0EF"/>
<path d="M400 80H368C380.73 80 392.939 85.0571 401.941 94.0589C410.943 103.061 416 115.27 416 128V375.451C416 381.962 413.414 388.206 408.81 392.81C404.206 397.414 397.962 400 391.451 400H423.451C429.962 400 436.206 397.414 440.81 392.81C445.414 388.206 448 381.962 448 375.451V128C448 115.27 442.943 103.061 433.941 94.0589C424.939 85.0571 412.73 80 400 80V80Z" fill="#55ABC9"/>
<path d="M352 336C405.019 336 448 285.856 448 224C448 162.144 405.019 112 352 112C298.981 112 256 162.144 256 224C256 285.856 298.981 336 352 336Z" fill="#F6F6E7"/>
<path d="M415.948 140.474C415.979 141.646 416 142.82 416 144C416 205.856 373.019 256 320 256C295.436 256 273.031 245.231 256.052 227.526C257.649 287.75 299.992 336 352 336C405.019 336 448 285.856 448 224C448 190.8 435.616 160.984 415.948 140.474Z" fill="#CCCBB2"/>
<path d="M352 272C387.346 272 416 246.928 416 216C416 185.072 387.346 160 352 160C316.654 160 288 185.072 288 216C288 246.928 316.654 272 352 272Z" fill="#F8C09C"/>
<path d="M407.772 188.542C405.128 217.343 377.6 240 344 240C320.06 240 299.2 228.491 288.228 211.458C288.09 212.958 288 214.469 288 216C288 246.928 316.654 272 352 272C387.346 272 416 246.928 416 216C415.971 206.244 413.113 196.706 407.772 188.542V188.542Z" fill="#E2AB8D"/>
<path d="M376 176V175.319C376 172.257 375.397 169.224 374.225 166.395C373.053 163.566 371.335 160.995 369.17 158.83C367.005 156.665 364.434 154.947 361.605 153.775C358.776 152.603 355.743 152 352.681 152C351.541 152 350.412 151.776 349.359 151.339C348.306 150.903 347.348 150.264 346.542 149.458C345.736 148.652 345.097 147.695 344.661 146.641C344.224 145.588 344 144.459 344 143.319V128L330.5 138.8C327.165 141.469 324.43 144.812 322.474 148.61C320.518 152.408 319.385 156.576 319.149 160.841C318.913 165.107 319.579 169.374 321.104 173.365C322.63 177.355 324.979 180.979 328 184H342.111C353.875 184 365.478 181.261 376 176V176Z" fill="#FFD884"/>
<path d="M360 200H376V216H360V200Z" fill="#8C5511"/>
<path d="M320 200H336V216H320V200Z" fill="#8C5511"/>
<path d="M120 48H152V96H120V48Z" fill="#A9BFD1"/>
<path d="M136 48H152V96H136V48Z" fill="#8DA3B2"/>
<path d="M104 88H168V135.997H104V88Z" fill="#F6F6E7"/>
<path d="M136 88H168V135.997H136V88Z" fill="#CCCBB2"/>
<path d="M208 56H104V24L208 32V56Z" fill="#F6F6E7"/>
<path d="M192 30.769C192 33.0318 191.555 35.2725 190.689 37.3632C189.823 39.4538 188.554 41.3534 186.953 42.9534C185.353 44.5535 183.454 45.8227 181.363 46.6886C179.273 47.5545 177.032 48.0001 174.769 48H104V56H208V32L192 30.769Z" fill="#CCCBB2"/>
<path d="M456 448H56L39.344 281.438H472.656L456 448Z" fill="#83A603"/>
<path d="M108.929 120H163.07C170.021 120 176.904 121.369 183.325 124.029C189.747 126.689 195.582 130.587 200.497 135.502C205.412 140.417 209.311 146.252 211.971 152.674C214.631 159.095 216 165.978 216 172.929V280H56V172.929C56 158.891 61.5764 145.429 71.5025 135.503C81.4287 125.576 94.8914 120 108.929 120V120Z" fill="#DD95C1"/>
<path d="M163.07 120H131.07C138.021 120 144.904 121.369 151.326 124.029C157.747 126.689 163.582 130.588 168.498 135.503C173.413 140.418 177.311 146.253 179.971 152.674C182.631 159.096 184 165.979 184 172.93V280H216V172.93C216 165.979 214.631 159.096 211.971 152.674C209.311 146.253 205.413 140.418 200.498 135.503C195.582 130.588 189.747 126.689 183.326 124.029C176.904 121.369 170.021 120 163.07 120V120Z" fill="#C17CA9"/>
<path d="M39.344 281.438L41.6 304H435.856C432.787 334.69 418.424 363.146 395.555 383.842C372.686 404.538 342.943 415.999 312.1 416H52.8L56 448H456L472.656 281.438H39.344Z" fill="#365902"/>
<path d="M330.482 389.3L325.607 392.136C321.262 394.718 317.481 398.146 314.486 402.217C311.492 406.289 309.346 410.92 308.175 415.836C307.01 420.726 304.879 425.335 301.908 429.39C298.937 433.446 295.186 436.867 290.875 439.453L280.238 445.835C276.378 448.151 273.597 451.905 272.505 456.271C271.414 460.638 272.101 465.259 274.417 469.119C275.563 471.03 277.075 472.697 278.866 474.023C280.656 475.35 282.691 476.311 284.853 476.852C287.015 477.392 289.262 477.502 291.467 477.174C293.671 476.846 295.789 476.087 297.7 474.94L308.549 468.43C317.132 463.281 327.409 461.751 337.12 464.179L337.832 464.357C342.64 465.559 347.638 465.802 352.541 465.073C357.443 464.343 362.154 462.655 366.404 460.105L371.224 457.213L330.482 389.3Z" fill="#F6F6E7"/>
<path d="M363.228 443.91L358.408 446.802C354.158 449.352 349.447 451.04 344.545 451.77C339.642 452.499 334.644 452.256 329.836 451.054L329.124 450.876C319.413 448.448 309.136 449.978 300.553 455.127L289.7 461.636C287.03 463.238 283.97 464.074 280.856 464.051C277.742 464.029 274.694 463.149 272.047 461.509C272.219 464.195 273.032 466.801 274.417 469.109C275.564 471.02 277.075 472.687 278.866 474.013C280.657 475.34 282.691 476.301 284.853 476.842C287.015 477.382 289.262 477.491 291.467 477.163C293.671 476.835 295.789 476.076 297.7 474.929L308.549 468.42C317.132 463.271 327.409 461.741 337.12 464.169L337.832 464.347C342.64 465.549 347.638 465.792 352.541 465.063C357.443 464.333 362.154 462.645 366.404 460.095L371.224 457.203L363.228 443.91Z" fill="#CCCBB2"/>
<path d="M208 288V246.422C208 241.986 206.905 237.618 204.811 233.706C202.718 229.795 199.691 226.461 196 224C192.309 221.539 189.282 218.205 187.189 214.294C185.095 210.382 184 206.014 184 201.578V184C184 179.757 182.314 175.687 179.314 172.686C176.313 169.686 172.243 168 168 168C163.757 168 159.687 169.686 156.686 172.686C153.686 175.687 152 179.757 152 184V201.578C152 206.014 150.905 210.382 148.811 214.294C146.718 218.205 143.691 221.539 140 224C136.309 226.461 133.282 229.795 131.189 233.706C129.095 237.618 128 241.986 128 246.422V288L120.111 295.889C115.003 300.997 110.951 307.061 108.187 313.735C105.423 320.408 104 327.561 104 334.785V464.666C104 470.855 106.458 476.79 110.834 481.166C115.21 485.542 121.145 488 127.334 488H208.666C214.855 488 220.79 485.542 225.166 481.166C229.542 476.79 232 470.855 232 464.666V334.785C232.001 327.561 230.578 320.407 227.814 313.732C225.049 307.058 220.997 300.993 215.889 295.885L208 288Z" fill="#A9E9FF"/>
<path d="M215.889 295.889L208 288V246.422C208 241.986 206.905 237.618 204.811 233.706C202.718 229.795 199.691 226.461 196 224C192.309 221.539 189.282 218.205 187.189 214.294C185.095 210.382 184 206.014 184 201.578V184C184 179.757 182.314 175.687 179.314 172.686C176.313 169.686 172.243 168 168 168C163.757 168 159.687 169.686 156.686 172.686C153.686 175.687 152 179.757 152 184V185.578C152 190.014 153.095 194.382 155.189 198.294C157.282 202.205 160.309 205.539 164 208C167.691 210.461 170.718 213.795 172.811 217.706C174.905 221.618 176 225.986 176 230.422V272L183.889 279.889C188.997 284.997 193.049 291.061 195.813 297.735C198.577 304.408 200 311.561 200 318.785V448.666C200 451.73 199.396 454.765 198.224 457.596C197.051 460.427 195.332 462.999 193.166 465.166C190.999 467.332 188.427 469.051 185.596 470.224C182.765 471.396 179.73 472 176.666 472H105.183C106.725 476.656 109.696 480.709 113.672 483.581C117.648 486.453 122.429 487.999 127.334 488H208.666C214.855 488 220.79 485.542 225.166 481.166C229.542 476.79 232 470.855 232 464.666V334.785C232 327.561 230.577 320.408 227.813 313.735C225.049 307.061 220.997 300.997 215.889 295.889V295.889Z" fill="#88D0EF"/>
<path d="M176 344H208V360H176V344Z" fill="#55ABC9"/>
<path d="M176 376H208V392H176V376Z" fill="#55ABC9"/>
<path d="M176 408H208V424H176V408Z" fill="#55ABC9"/>
<path d="M176 440H208V456H176V440Z" fill="#55ABC9"/>
<path d="M24 240H488V288H24V240Z" fill="#DBED91"/>
<path d="M488 288H24V272H432C440.487 272 448.626 268.629 454.627 262.627C460.629 256.626 464 248.487 464 240H488V288Z" fill="#D0DD83"/>
<path d="M439.138 317.505C426.858 314.435 413.943 315.075 402.027 319.345C390.111 323.615 379.729 331.323 372.193 341.493C364.658 351.663 360.307 363.84 359.692 376.483C359.076 389.126 362.224 401.668 368.736 412.522C375.249 423.376 384.834 432.055 396.279 437.462C407.724 442.869 420.515 444.76 433.035 442.897C445.556 441.034 457.242 435.5 466.617 426.996C475.992 418.491 482.635 407.397 485.705 395.117C487.743 386.963 488.156 378.488 486.919 370.175C485.682 361.862 482.82 353.874 478.496 346.667C474.171 339.46 468.47 333.175 461.717 328.171C454.964 323.168 447.292 319.543 439.138 317.505ZM454.661 387.356C453.126 393.496 449.805 399.043 445.117 403.295C440.43 407.548 434.586 410.315 428.326 411.246C422.066 412.178 415.671 411.232 409.948 408.529C404.225 405.825 399.433 401.486 396.177 396.059C392.921 390.632 391.347 384.361 391.654 378.04C391.962 371.718 394.137 365.63 397.905 360.544C401.673 355.459 406.864 351.605 412.822 349.47C418.78 347.335 425.237 347.015 431.377 348.55C435.454 349.569 439.29 351.381 442.667 353.883C446.043 356.385 448.894 359.527 451.056 363.131C453.218 366.734 454.649 370.728 455.268 374.885C455.886 379.041 455.68 383.279 454.661 387.356Z" fill="#FFBF41"/>
<path d="M408.833 407.973C402.544 404.695 397.521 399.421 394.555 392.979C391.589 386.537 390.847 379.292 392.446 372.382C394.044 365.473 397.893 359.29 403.387 354.805C408.882 350.321 415.71 347.788 422.8 347.606C418.468 345.348 413.677 344.113 408.793 343.993C403.91 343.874 399.064 344.874 394.627 346.917C390.19 348.96 386.28 351.992 383.195 355.78C380.111 359.568 377.935 364.012 376.834 368.771C375.734 373.531 375.737 378.479 376.844 383.236C377.951 387.994 380.133 392.435 383.222 396.219C386.311 400.004 390.225 403.03 394.665 405.068C399.105 407.105 403.952 408.099 408.835 407.973H408.833Z" fill="#F2B705"/>
<path d="M439.138 317.505C436.179 316.769 433.171 316.244 430.138 315.932C444.758 321.325 456.908 331.866 464.309 345.578C471.711 359.291 473.855 375.232 470.34 390.413C466.826 405.594 457.893 418.971 445.218 428.035C432.543 437.1 416.997 441.228 401.495 439.647C403.657 440.443 405.86 441.123 408.095 441.684C424.562 445.801 441.99 443.207 456.545 434.474C471.1 425.741 481.59 411.584 485.707 395.116C489.823 378.649 487.23 361.221 478.497 346.666C469.764 332.111 455.606 321.622 439.139 317.505H439.138Z" fill="#F2B705"/>
<path d="M350.49 357.296C345.673 349.263 335.256 346.657 327.223 351.474C319.191 356.292 316.585 366.709 321.403 374.741L379.555 471.699C384.372 479.731 394.789 482.338 402.821 477.52C410.854 472.703 413.46 462.286 408.642 454.253L350.49 357.296Z" fill="#F2B705"/>
<path d="M409.064 454.3L350.855 357.285C349.408 354.872 347.384 352.858 344.964 351.423C342.544 349.988 339.805 349.179 336.994 349.067L385.734 430.3C387.311 432.925 388.147 435.927 388.155 438.989C388.163 442.051 387.342 445.058 385.779 447.691C384.217 450.324 381.97 452.485 379.278 453.945C376.587 455.404 373.55 456.108 370.491 455.981L379.96 471.762C381.091 473.704 382.597 475.401 384.389 476.756C386.182 478.111 388.225 479.097 390.402 479.656C392.578 480.215 394.844 480.336 397.067 480.012C399.291 479.688 401.428 478.926 403.355 477.77C405.281 476.614 406.959 475.087 408.291 473.277C409.623 471.467 410.582 469.411 411.113 467.228C411.643 465.044 411.735 462.777 411.383 460.558C411.031 458.339 410.241 456.212 409.06 454.3H409.064Z" fill="#DB9E07"/>
<path d="M208 246.422C208 241.986 206.905 237.618 204.811 233.706C202.718 229.795 199.691 226.461 196 224C192.309 221.539 189.282 218.205 187.189 214.294C185.095 210.382 184 206.014 184 201.578V184C184 179.757 182.314 175.687 179.314 172.686C176.313 169.686 172.243 168 168 168C163.757 168 159.687 169.686 156.686 172.686C153.686 175.687 152 179.757 152 184V201.578C152 206.014 150.905 210.382 148.811 214.294C146.718 218.205 143.691 221.539 140 224C136.309 226.461 133.282 229.795 131.189 233.706C129.095 237.618 128 241.986 128 246.422V264H208V246.422Z" fill="#FFD884"/>
<path d="M196 224C192.309 221.539 189.282 218.205 187.189 214.294C185.095 210.382 184 206.014 184 201.578V184C184.004 181.19 183.266 178.429 181.862 175.995C180.458 173.561 178.438 171.541 176.004 170.137C173.57 168.733 170.809 167.996 167.999 168C165.189 168.003 162.43 168.748 160 170.158C162.432 171.56 164.451 173.577 165.855 176.007C167.26 178.437 167.999 181.193 168 184V201.578C168 206.014 169.095 210.382 171.189 214.294C173.282 218.205 176.309 221.539 180 224C183.691 226.461 186.718 229.795 188.811 233.706C190.905 237.618 192 241.986 192 246.422V264H208V246.422C208 241.986 206.905 237.618 204.811 233.706C202.718 229.795 199.691 226.461 196 224V224Z" fill="#FFBF41"/>
<path d="M112 256H224V288H112V256Z" fill="#F6F6E7"/>
<path d="M224 288H112V272H192C196.243 272 200.313 270.314 203.314 267.314C206.314 264.313 208 260.243 208 256H224V288Z" fill="#CCCBB2"/>
</svg>
