<svg width="405" height="405" viewBox="0 0 405 405" fill="none" xmlns="http://www.w3.org/2000/svg">
<g clip-path="url(#clip0)">
<path d="M17.6819 396.788V238.388H176.082V396.788H17.6819Z" fill="#ACE2E5"/>
<path d="M72.8818 314.388V276.788H94.4818C100.082 276.788 106.482 277.588 111.282 279.188C117.682 282.388 120.882 288.788 120.082 295.188C120.082 298.388 119.282 301.588 117.682 304.788C115.282 308.788 112.082 311.188 108.082 312.788C104.082 314.388 100.082 314.388 96.0818 314.388H72.8818Z" fill="#ACE2E5"/>
<path d="M72.8818 350.388V310.388H98.4818C104.882 310.388 110.482 311.188 116.082 314.388C121.682 317.588 124.082 323.988 124.082 330.388C124.082 336.788 121.682 350.388 99.2818 350.388H72.8818Z" fill="#ACE2E5"/>
<path d="M90.4819 63.988L237.682 5.58801L295.282 152.788L148.082 210.388L90.4819 63.988Z" fill="#EA7878"/>
<path d="M173.682 60.788L220.082 113.588L176.082 130.388L173.682 60.788Z" fill="#EA7878"/>
<path d="M195.282 351.188L236.082 198.388L388.882 239.188L348.082 391.988L195.282 351.188Z" fill="#EDA86B"/>
<path d="M138.482 208.788C141.682 215.988 149.682 219.988 156.882 216.788L292.082 163.188C299.282 159.988 303.282 151.988 300.082 144.788L246.482 8.78794C243.282 1.58794 235.282 -1.61206 228.082 0.787943L92.082 54.3879C84.882 57.5879 80.882 65.5879 84.082 72.7879L138.482 208.788ZM233.682 16.7879L285.682 148.788L153.682 200.788L101.682 68.7879L233.682 16.7879Z" fill="#1E0E10"/>
<path d="M169.682 230.388H24.0819C16.0819 230.388 9.68188 236.788 9.68188 244.788V390.388C9.68188 398.388 16.0819 404.788 24.0819 404.788H169.682C177.682 404.788 184.082 398.388 184.082 390.388V244.788C184.082 236.788 177.682 230.388 169.682 230.388ZM168.082 388.788H25.6819V246.388H168.082V388.788Z" fill="#1E0E10"/>
<path d="M384.882 229.588L244.082 191.988C236.082 190.388 228.882 194.388 226.482 202.388L188.882 343.188C186.482 350.388 191.282 358.388 199.282 360.788L340.082 398.388C347.282 400.788 355.282 395.988 357.682 387.988L394.482 247.188C396.882 239.188 392.082 231.988 384.882 229.588ZM342.482 381.588L204.882 345.588L241.682 207.988L379.282 244.788L342.482 381.588Z" fill="#1E0E10"/>
<path d="M168.882 149.588C168.882 151.188 168.882 151.988 169.682 152.788C170.482 154.388 172.082 155.988 173.682 156.788C175.282 157.588 177.682 157.588 180.082 156.788C181.682 155.988 183.282 154.388 184.082 152.788C184.882 149.588 184.882 146.388 184.882 143.188V131.988L216.882 119.988L224.082 127.988L227.282 131.188C228.082 131.988 229.682 132.788 230.482 133.588C231.282 134.388 232.082 134.388 233.682 134.388C234.482 134.388 236.082 134.388 236.882 133.588C238.482 132.788 240.082 131.188 240.882 129.588C241.682 127.988 241.682 125.588 240.882 123.988C239.282 121.588 237.682 118.388 235.282 116.788L195.282 74.388L190.482 69.588C189.682 67.988 188.082 67.188 186.482 66.388C184.882 65.588 183.282 64.788 181.682 64.788C177.682 64.788 173.682 66.388 170.482 68.788C169.682 70.388 168.882 71.988 168.082 73.588C167.282 75.988 167.282 77.588 167.282 79.988C167.282 82.388 167.282 83.988 167.282 86.388V144.788C168.082 146.388 168.082 147.988 168.882 149.588ZM206.482 109.588L183.282 118.388L182.482 82.388L206.482 109.588Z" fill="#1E0E10"/>
<path d="M74.4818 355.188H100.082C104.082 355.188 107.282 354.388 111.282 354.388C114.482 354.388 116.882 353.588 120.082 351.988C124.082 350.388 127.282 347.188 129.682 343.988C132.082 339.988 133.682 335.988 133.682 331.188C133.682 321.588 127.282 312.788 116.882 311.188C124.882 307.988 129.682 300.788 129.682 292.788C129.682 290.388 129.682 287.988 128.882 285.588C128.082 283.188 127.282 281.588 125.682 279.188C124.082 277.588 122.482 275.988 120.882 274.388C118.482 272.788 116.082 271.988 112.882 271.188C109.682 270.388 105.682 270.388 102.482 270.388H74.4818C71.2818 270.388 68.8818 271.188 66.4818 272.788C64.8818 275.188 64.0818 277.588 64.0818 280.788V343.188C64.0818 346.388 64.8818 348.788 66.4818 351.188C68.8818 355.188 71.2818 355.988 74.4818 355.188ZM80.8818 284.788H94.4818C99.2818 284.788 104.082 285.588 108.082 287.188C111.282 288.788 112.882 291.988 112.882 295.188C112.882 296.788 112.082 299.188 111.282 300.788C110.482 303.188 108.082 304.788 105.682 305.588C102.482 306.388 99.2818 307.188 96.0818 307.188H80.8818V284.788ZM80.8818 318.388H98.4818C103.282 318.388 108.082 319.188 112.082 321.588C115.282 323.988 116.882 327.188 116.082 330.388C116.082 338.388 110.482 342.388 99.2818 342.388H80.8818V318.388Z" fill="#1E0E10"/>
<path d="M258.482 314.388C260.082 317.588 261.682 320.788 264.882 323.188C267.282 325.588 270.482 327.988 273.682 329.588C276.882 331.188 280.882 332.788 284.882 333.588C289.682 335.188 295.282 335.188 300.082 335.188C304.082 334.388 308.882 332.788 312.082 330.388C315.282 328.788 317.682 326.388 320.082 323.188C321.682 320.788 323.282 318.388 324.082 315.188C324.882 313.588 324.082 311.188 323.282 309.588C322.482 307.988 320.882 306.388 319.282 306.388C317.682 305.588 315.282 306.388 313.682 307.188C312.082 308.788 310.482 309.588 309.682 311.988C307.282 315.988 304.082 318.388 299.282 319.988C295.282 321.588 290.482 321.588 286.482 319.988C282.482 319.188 279.282 317.588 276.082 315.188C273.682 311.988 271.282 307.988 271.282 303.988C270.482 298.388 271.282 292.788 272.882 287.988C274.482 279.988 278.482 272.788 284.882 267.188C289.682 263.188 296.882 261.588 303.282 263.988C307.282 264.788 310.482 267.188 312.882 269.588C315.282 272.788 316.882 276.788 317.682 280.788C318.482 283.188 318.482 284.788 320.082 287.188C320.882 288.788 322.482 289.588 324.082 289.588C325.682 290.388 328.082 289.588 329.682 288.788C331.282 287.988 332.882 286.388 332.882 284.788C333.682 280.788 333.682 276.788 331.282 272.788C329.682 266.388 326.482 261.588 322.482 258.388C317.682 254.388 312.082 251.988 306.482 250.388C300.882 248.788 296.082 248.788 290.482 248.788C285.682 249.588 280.082 251.188 276.082 253.588C271.282 256.788 267.282 259.988 264.082 264.788C260.882 269.588 258.482 275.188 256.882 281.588C256.082 285.588 255.282 289.588 255.282 293.588C255.282 297.588 255.282 300.788 256.082 304.788C256.082 307.988 257.682 311.188 258.482 314.388Z" fill="#1E0E10"/>
</g>
<defs>
<clipPath id="clip0">
<rect width="404.788" height="404.788" fill="white"/>
</clipPath>
</defs>
</svg>
