<svg width="368" height="512" viewBox="0 0 368 512" fill="none" xmlns="http://www.w3.org/2000/svg">
<path d="M205.014 123.946C204.07 123.946 203.109 123.766 202.18 123.386C167.491 109.212 150.798 69.4576 164.973 34.7678C170.618 20.9533 181.303 10.1637 195.064 4.38588C208.823 -1.39092 224.01 -1.46492 237.824 4.18088C249.247 8.84672 258.168 17.6834 262.944 29.061C267.721 40.4376 267.782 52.9942 263.115 64.4168C259.229 73.9254 251.874 81.3532 242.402 85.329C232.93 89.3049 222.478 89.3549 212.969 85.47C196.5 78.7413 188.575 59.8669 195.306 43.3985C198.065 36.6447 203.288 31.3709 210.015 28.547C213.834 26.9431 218.23 28.739 219.833 32.5589C221.436 36.3788 219.641 40.7746 215.821 42.3765C212.789 43.6495 210.433 46.0274 209.189 49.0713C205.588 57.884 209.829 67.9836 218.642 71.5855C230.614 76.4753 244.336 70.7155 249.229 58.743C255.735 42.8185 248.073 24.5702 232.149 18.0654C211.29 9.53969 187.381 19.5783 178.856 40.4406C167.812 67.4737 180.819 98.4546 207.853 109.501C211.687 111.067 213.526 115.445 211.958 119.28C210.773 122.186 207.97 123.946 205.014 123.946V123.946Z" fill="#C4715A"/>
<path d="M331.314 291.44C351.541 291.44 367.938 275.043 367.938 254.816C367.938 234.589 351.541 218.192 331.314 218.192C311.087 218.192 294.69 234.589 294.69 254.816C294.69 275.043 311.087 291.44 331.314 291.44Z" fill="#FFCEBF"/>
<path d="M36.6862 291.44C56.9129 291.44 73.3099 275.043 73.3099 254.816C73.3099 234.589 56.9129 218.192 36.6862 218.192C16.4595 218.192 0.0625 234.589 0.0625 254.816C0.0625 275.043 16.4595 291.44 36.6862 291.44Z" fill="#F9BCAF"/>
<path d="M225.313 396.255C222.737 395.331 220.125 394.5 217.476 393.751C206.833 390.728 195.605 389.101 184.001 389.101C116.25 389.101 61.1033 444.259 61.1033 511.999H306.899C306.9 459.193 273.219 413.406 225.313 396.255V396.255Z" fill="#FFCEBF"/>
<path d="M209.371 391.746C201.184 390.015 192.698 389.101 184.001 389.101C116.25 389.101 61.1033 444.259 61.1033 511.999H111.857C111.857 452.958 153.753 403.481 209.371 391.746V391.746Z" fill="#F9BCAF"/>
<path d="M184.001 401.996C265.288 401.996 331.184 336.1 331.184 254.813C331.184 173.526 265.288 107.63 184.001 107.63C102.714 107.63 36.8182 173.526 36.8182 254.813C36.8182 336.1 102.714 401.996 184.001 401.996Z" fill="#FFDFCF"/>
<path d="M87.5714 254.814C87.5714 182.182 140.186 121.844 209.378 109.817C201.133 108.384 192.656 107.63 184.002 107.63C102.715 107.63 36.8192 173.526 36.8192 254.813C36.8192 336.1 102.715 401.996 184.002 401.996C192.657 401.996 201.133 401.242 209.378 399.809C140.186 387.783 87.5714 327.446 87.5714 254.814V254.814Z" fill="#FFCEBF"/>
<path d="M103.247 328.274C119.703 328.274 133.044 317.65 133.044 304.544C133.044 291.439 119.703 280.815 103.247 280.815C86.7905 280.815 73.45 291.439 73.45 304.544C73.45 317.65 86.7905 328.274 103.247 328.274Z" fill="#FDA0C1"/>
<path d="M264.756 328.274C281.213 328.274 294.553 317.65 294.553 304.544C294.553 291.439 281.213 280.815 264.756 280.815C248.3 280.815 234.959 291.439 234.959 304.544C234.959 317.65 248.3 328.274 264.756 328.274Z" fill="#FDA0C1"/>
<path d="M120.614 289.204C116.471 289.204 113.114 285.847 113.114 281.704V269.522C113.114 265.379 116.471 262.022 120.614 262.022C124.757 262.022 128.114 265.379 128.114 269.522V281.704C128.114 285.846 124.756 289.204 120.614 289.204Z" fill="#6E6E6E"/>
<path d="M247.39 289.204C243.247 289.204 239.89 285.847 239.89 281.704V269.522C239.89 265.379 243.247 262.022 247.39 262.022C251.533 262.022 254.89 265.379 254.89 269.522V281.704C254.89 285.846 251.533 289.204 247.39 289.204Z" fill="#6E6E6E"/>
<path d="M184.001 296.454C175.428 296.454 167.276 292.741 161.635 286.267C158.913 283.144 159.239 278.407 162.362 275.685C165.485 272.964 170.221 273.29 172.943 276.412C175.735 279.616 179.765 281.454 184.002 281.454C188.239 281.454 192.269 279.616 195.061 276.412C197.781 273.291 202.517 272.965 205.642 275.685C208.764 278.407 209.09 283.144 206.369 286.267C200.726 292.741 192.575 296.454 184.001 296.454Z" fill="#6E6E6E"/>
</svg>
